<svg  xmlns="http://www.w3.org/2000/svg" width="128" height="76" viewBox="0 0 32 19" fill="none"><path d="M0.132969 9.36C0.132969 8.336 0.316969 7.32 0.684969 6.312C1.05297 5.288 1.58897 4.376 2.29297 3.576C3.01297 2.76 3.88497 2.104 4.90897 1.608C5.93297 1.112 7.09297 0.863999 8.38897 0.863999C9.94097 0.863999 11.269 1.208 12.373 1.896C13.477 2.584 14.309 3.48 14.869 4.584L12.757 6C12.517 5.488 12.229 5.056 11.893 4.704C11.557 4.352 11.189 4.072 10.789 3.864C10.389 3.656 9.97297 3.512 9.54097 3.432C9.10897 3.336 8.69297 3.288 8.29297 3.288C7.39697 3.288 6.61297 3.472 5.94097 3.84C5.26897 4.192 4.70097 4.664 4.23697 5.256C3.78897 5.848 3.44497 6.512 3.20497 7.248C2.98097 7.984 2.86897 8.72 2.86897 9.456C2.86897 10.288 3.00497 11.08 3.27697 11.832C3.54897 12.584 3.92497 13.248 4.40497 13.824C4.90097 14.4 5.48497 14.864 6.15697 15.216C6.82897 15.552 7.56497 15.72 8.36497 15.72C8.78097 15.72 9.20497 15.672 9.63697 15.576C10.085 15.464 10.509 15.296 10.909 15.072C11.325 14.832 11.701 14.536 12.037 14.184C12.389 13.832 12.677 13.408 12.901 12.912L15.133 14.184C14.861 14.824 14.477 15.392 13.981 15.888C13.485 16.368 12.925 16.776 12.301 17.112C11.677 17.448 11.013 17.704 10.309 17.88C9.62097 18.056 8.94097 18.144 8.26897 18.144C7.06897 18.144 5.97297 17.888 4.98097 17.376C3.98897 16.864 3.13297 16.2 2.41297 15.384C1.69297 14.552 1.13297 13.616 0.732969 12.576C0.332969 11.52 0.132969 10.448 0.132969 9.36ZM18.4414 0.959999L23.5774 14.616L28.6894 0.959999H31.5454L24.7294 18H22.4254L15.5854 0.959999H18.4414Z" fill="black"></path></svg>